<mxfile host="Electron" agent="Mozilla/5.0 (Macintosh; Intel Mac OS X 10_15_7) AppleWebKit/537.36 (KHTML, like Gecko) draw.io/26.0.9 Chrome/128.0.6613.186 Electron/32.2.5 Safari/537.36" version="26.0.9">
  <diagram name="Page-1" id="LaWHFWLeA8ltTFscaMyL">
    <mxGraphModel dx="928" dy="833" grid="1" gridSize="10" guides="1" tooltips="1" connect="1" arrows="1" fold="1" page="1" pageScale="1" pageWidth="850" pageHeight="1100" math="0" shadow="0">
      <root>
        <mxCell id="0" />
        <mxCell id="1" parent="0" />
        <mxCell id="gm8WBRlXmR8NpAHpHh1z-33" value="" style="rounded=0;whiteSpace=wrap;html=1;" vertex="1" parent="1">
          <mxGeometry x="367" y="747" width="120" height="90" as="geometry" />
        </mxCell>
        <mxCell id="gm8WBRlXmR8NpAHpHh1z-27" value="" style="rounded=0;whiteSpace=wrap;html=1;" vertex="1" parent="1">
          <mxGeometry x="361" y="740" width="120" height="90" as="geometry" />
        </mxCell>
        <mxCell id="gm8WBRlXmR8NpAHpHh1z-13" value="" style="rounded=0;whiteSpace=wrap;html=1;" vertex="1" parent="1">
          <mxGeometry x="160" y="450" width="330" height="250" as="geometry" />
        </mxCell>
        <mxCell id="gm8WBRlXmR8NpAHpHh1z-20" style="edgeStyle=orthogonalEdgeStyle;rounded=0;orthogonalLoop=1;jettySize=auto;html=1;exitX=0.5;exitY=1;exitDx=0;exitDy=0;entryX=0.5;entryY=0;entryDx=0;entryDy=0;" edge="1" parent="1" source="gm8WBRlXmR8NpAHpHh1z-14" target="gm8WBRlXmR8NpAHpHh1z-15">
          <mxGeometry relative="1" as="geometry" />
        </mxCell>
        <mxCell id="gm8WBRlXmR8NpAHpHh1z-14" value="update()" style="rounded=1;whiteSpace=wrap;html=1;fillColor=#dae8fc;strokeColor=#6c8ebf;" vertex="1" parent="1">
          <mxGeometry x="200" y="494" width="100" height="40" as="geometry" />
        </mxCell>
        <mxCell id="gm8WBRlXmR8NpAHpHh1z-24" style="edgeStyle=orthogonalEdgeStyle;rounded=0;orthogonalLoop=1;jettySize=auto;html=1;exitX=0.5;exitY=1;exitDx=0;exitDy=0;" edge="1" parent="1" source="gm8WBRlXmR8NpAHpHh1z-15" target="gm8WBRlXmR8NpAHpHh1z-23">
          <mxGeometry relative="1" as="geometry" />
        </mxCell>
        <mxCell id="gm8WBRlXmR8NpAHpHh1z-15" value="countLivingNeighbors()" style="rounded=1;whiteSpace=wrap;html=1;fillColor=#dae8fc;strokeColor=#6c8ebf;" vertex="1" parent="1">
          <mxGeometry x="180" y="574" width="140" height="40" as="geometry" />
        </mxCell>
        <mxCell id="gm8WBRlXmR8NpAHpHh1z-17" value="render()" style="rounded=1;whiteSpace=wrap;html=1;fillColor=#dae8fc;strokeColor=#6c8ebf;" vertex="1" parent="1">
          <mxGeometry x="365" y="499" width="100" height="40" as="geometry" />
        </mxCell>
        <mxCell id="gm8WBRlXmR8NpAHpHh1z-18" value="forEachCell(&amp;nbsp; &amp;nbsp;)" style="text;html=1;align=center;verticalAlign=middle;whiteSpace=wrap;rounded=0;" vertex="1" parent="1">
          <mxGeometry x="169" y="535" width="100" height="30" as="geometry" />
        </mxCell>
        <mxCell id="gm8WBRlXmR8NpAHpHh1z-23" value="isAlive()" style="rounded=1;whiteSpace=wrap;html=1;fillColor=#dae8fc;strokeColor=#6c8ebf;" vertex="1" parent="1">
          <mxGeometry x="200" y="644" width="100" height="40" as="geometry" />
        </mxCell>
        <mxCell id="gm8WBRlXmR8NpAHpHh1z-25" value="" style="rounded=0;whiteSpace=wrap;html=1;" vertex="1" parent="1">
          <mxGeometry x="355" y="734" width="120" height="90" as="geometry" />
        </mxCell>
        <mxCell id="gm8WBRlXmR8NpAHpHh1z-26" value="draw()" style="rounded=1;whiteSpace=wrap;html=1;fillColor=#dae8fc;strokeColor=#6c8ebf;" vertex="1" parent="1">
          <mxGeometry x="365" y="766" width="100" height="40" as="geometry" />
        </mxCell>
        <mxCell id="gm8WBRlXmR8NpAHpHh1z-28" style="edgeStyle=orthogonalEdgeStyle;rounded=0;orthogonalLoop=1;jettySize=auto;html=1;exitX=0.5;exitY=1;exitDx=0;exitDy=0;entryX=0.5;entryY=0;entryDx=0;entryDy=0;" edge="1" parent="1" source="gm8WBRlXmR8NpAHpHh1z-17" target="gm8WBRlXmR8NpAHpHh1z-26">
          <mxGeometry relative="1" as="geometry">
            <mxPoint x="415" y="609" as="sourcePoint" />
          </mxGeometry>
        </mxCell>
        <mxCell id="gm8WBRlXmR8NpAHpHh1z-29" value="forEachCell(&amp;nbsp; &amp;nbsp;)" style="text;html=1;align=center;verticalAlign=middle;whiteSpace=wrap;rounded=0;" vertex="1" parent="1">
          <mxGeometry x="334" y="540" width="100" height="30" as="geometry" />
        </mxCell>
        <mxCell id="gm8WBRlXmR8NpAHpHh1z-30" value="class Cell" style="text;html=1;align=center;verticalAlign=middle;whiteSpace=wrap;rounded=0;" vertex="1" parent="1">
          <mxGeometry x="354" y="728" width="60" height="30" as="geometry" />
        </mxCell>
        <mxCell id="gm8WBRlXmR8NpAHpHh1z-31" value="class Grid" style="text;html=1;align=center;verticalAlign=middle;whiteSpace=wrap;rounded=0;" vertex="1" parent="1">
          <mxGeometry x="160" y="445" width="60" height="30" as="geometry" />
        </mxCell>
        <mxCell id="gm8WBRlXmR8NpAHpHh1z-34" value="" style="rounded=0;whiteSpace=wrap;html=1;" vertex="1" parent="1">
          <mxGeometry x="160" y="190" width="330" height="220" as="geometry" />
        </mxCell>
        <mxCell id="gm8WBRlXmR8NpAHpHh1z-35" value="class Game" style="text;html=1;align=center;verticalAlign=middle;whiteSpace=wrap;rounded=0;" vertex="1" parent="1">
          <mxGeometry x="160" y="185" width="70" height="30" as="geometry" />
        </mxCell>
        <mxCell id="gm8WBRlXmR8NpAHpHh1z-40" style="rounded=0;orthogonalLoop=1;jettySize=auto;html=1;exitX=0.5;exitY=1;exitDx=0;exitDy=0;entryX=0.5;entryY=0;entryDx=0;entryDy=0;" edge="1" parent="1" source="gm8WBRlXmR8NpAHpHh1z-36" target="gm8WBRlXmR8NpAHpHh1z-14">
          <mxGeometry relative="1" as="geometry" />
        </mxCell>
        <mxCell id="gm8WBRlXmR8NpAHpHh1z-41" style="rounded=0;orthogonalLoop=1;jettySize=auto;html=1;exitX=0.5;exitY=1;exitDx=0;exitDy=0;entryX=0.5;entryY=0;entryDx=0;entryDy=0;" edge="1" parent="1" source="gm8WBRlXmR8NpAHpHh1z-36" target="gm8WBRlXmR8NpAHpHh1z-17">
          <mxGeometry relative="1" as="geometry" />
        </mxCell>
        <mxCell id="gm8WBRlXmR8NpAHpHh1z-36" value="gameLoop()" style="rounded=1;whiteSpace=wrap;html=1;fillColor=#dae8fc;strokeColor=#6c8ebf;glass=0;shadow=0;" vertex="1" parent="1">
          <mxGeometry x="275" y="310" width="100" height="40" as="geometry" />
        </mxCell>
        <mxCell id="gm8WBRlXmR8NpAHpHh1z-39" style="rounded=0;orthogonalLoop=1;jettySize=auto;html=1;exitX=0.5;exitY=1;exitDx=0;exitDy=0;entryX=0.5;entryY=0;entryDx=0;entryDy=0;" edge="1" parent="1" source="gm8WBRlXmR8NpAHpHh1z-37" target="gm8WBRlXmR8NpAHpHh1z-36">
          <mxGeometry relative="1" as="geometry" />
        </mxCell>
        <mxCell id="gm8WBRlXmR8NpAHpHh1z-37" value="start()" style="rounded=1;whiteSpace=wrap;html=1;fillColor=#dae8fc;strokeColor=#6c8ebf;" vertex="1" parent="1">
          <mxGeometry x="275" y="220" width="100" height="40" as="geometry" />
        </mxCell>
        <mxCell id="gm8WBRlXmR8NpAHpHh1z-38" value="" style="endArrow=none;html=1;rounded=0;edgeStyle=orthogonalEdgeStyle;curved=1;exitX=0.708;exitY=1.025;exitDx=0;exitDy=0;entryX=0.68;entryY=-0.009;entryDx=0;entryDy=0;dashed=1;targetPerimeterSpacing=1;endFill=1;startFill=1;startArrow=classic;exitPerimeter=0;entryPerimeter=0;" edge="1" parent="1" source="gm8WBRlXmR8NpAHpHh1z-36" target="gm8WBRlXmR8NpAHpHh1z-36">
          <mxGeometry width="50" height="50" relative="1" as="geometry">
            <mxPoint x="395.76" y="360" as="sourcePoint" />
            <mxPoint x="445.76" y="310" as="targetPoint" />
            <Array as="points">
              <mxPoint x="346" y="380" />
              <mxPoint x="440" y="380" />
              <mxPoint x="440" y="280" />
              <mxPoint x="343" y="280" />
            </Array>
          </mxGeometry>
        </mxCell>
        <mxCell id="gm8WBRlXmR8NpAHpHh1z-43" value="" style="endArrow=classic;html=1;rounded=0;entryX=0.669;entryY=0.019;entryDx=0;entryDy=0;entryPerimeter=0;" edge="1" parent="1" target="gm8WBRlXmR8NpAHpHh1z-31">
          <mxGeometry width="50" height="50" relative="1" as="geometry">
            <mxPoint x="200" y="409" as="sourcePoint" />
            <mxPoint x="200" y="440" as="targetPoint" />
          </mxGeometry>
        </mxCell>
        <mxCell id="gm8WBRlXmR8NpAHpHh1z-45" value="new" style="text;html=1;align=center;verticalAlign=middle;whiteSpace=wrap;rounded=0;" vertex="1" parent="1">
          <mxGeometry x="156" y="410" width="60" height="30" as="geometry" />
        </mxCell>
        <mxCell id="gm8WBRlXmR8NpAHpHh1z-46" value="new" style="text;html=1;align=center;verticalAlign=middle;whiteSpace=wrap;rounded=0;" vertex="1" parent="1">
          <mxGeometry x="340" y="700" width="60" height="30" as="geometry" />
        </mxCell>
        <mxCell id="gm8WBRlXmR8NpAHpHh1z-47" value="" style="endArrow=classic;html=1;rounded=0;exitX=0.75;exitY=0;exitDx=0;exitDy=0;" edge="1" parent="1" source="gm8WBRlXmR8NpAHpHh1z-46">
          <mxGeometry width="50" height="50" relative="1" as="geometry">
            <mxPoint x="550" y="650" as="sourcePoint" />
            <mxPoint x="385" y="730" as="targetPoint" />
            <Array as="points">
              <mxPoint x="385" y="720" />
            </Array>
          </mxGeometry>
        </mxCell>
      </root>
    </mxGraphModel>
  </diagram>
</mxfile>
